{"title":"The Boy Next Door 2015 HDCAM FIRST ENG x264 Pimp4003","uid":11674581,"size":1154089910,"categoryP":"video","categoryS":"movies","magnet":"?xt=urn:btih:c325c3e715c0bb351c5b1543b5f4efe06625e15e&amp;dn=The+Boy+Next+Door+2015+HDCAM+FIRST+ENG+x264+Pimp4003&amp;tr=udp%3A%2F%2Ftracker.openbittorrent.com%3A80&amp;tr=udp%3A%2F%2Fopen.demonii.com%3A1337&amp;tr=udp%3A%2F%2Ftracker.coppersurfer.tk%3A6969&amp;tr=udp%3A%2F%2Fexodus.desync.com%3A6969","seeders":70,"leechers":0,"uploader":"shawnmurthy","files":1,"time":1422804252,"description":"SOURCE IS PIMP4003.....LIKE ALWAYS FIRST CAM BY ME...I USED NEW SOURCE...HE DID A PRETTY GOOD JOB IN THIS...DID THE USUAL STUFF...ADJUSTED CLARITY, ADJUSTED BRIGHTNESS AND ALSO CUT SOME OF THE FLICKERING...AUDIO IS NOT BAD DID SOME WORK TO IMPROVE IT.....ENJOY\n\nSCREENSHOTS VISIT PIMP'S HOME SITE\n &lt;a href=&quot;\nhttp://i.imgur.com/SpsuXOR.png&quot; rel=&quot;nofollow&quot; target=&quot;_NEW&quot;&gt;\nhttp://i.imgur.com/SpsuXOR.png&lt;/a&gt;\n\nPIMP THE ONE AND ONLY PIMPSTER.....PRESENTS\n\nfacebook/OfficialPimp4003\n\ntwitter/PIMP4003DOTNET\n &lt;a href=&quot;\nhttp://i.imgur.com/5CtZiSt.jpg&quot; rel=&quot;nofollow&quot; target=&quot;_NEW&quot;&gt;\nhttp://i.imgur.com/5CtZiSt.jpg&lt;/a&gt;\n\nThe Boy Next Door 2015 HDCAM FIRST ENG x264 Pimp4003\n &lt;a href=&quot;\nhttp://www.imdb.com/title/tt3181822&quot; rel=&quot;nofollow&quot; target=&quot;_NEW&quot;&gt;\nhttp://www.imdb.com/title/tt3181822&lt;/a&gt;\n\nA newly divorced woman falls for a younger man who has recently moved in across the street from her, but their torrid affair soon takes a dangerous turn.\n\nDirector: Rob Cohen\nWriter: Barbara Curry\nStars: Jennifer Lopez, Ryan Guzman, Kristin Chenoweth | See full cast and crew Â»\n\nVideo\nID                                       : 1\nFormat                                   : MPEG-4 Visual\nFormat profile                           : Simple@L3\nFormat settings, BVOP                    : No\nFormat settings, QPel                    : No\nFormat settings, GMC                     : No warppoints\nFormat settings, Matrix                  : Default (H.263)\nCodec ID                                 : 20\nDuration                                 : 1h 24mn\nBit rate                                 : 1 688 Kbps\nWidth                                    : 720 pixels\nHeight                                   : 536 pixels\nDisplay aspect ratio                     : 4:3\nFrame rate mode                          : Variable\nFrame rate                               : 29.916 fps\nMinimum frame rate                       : 29.916 fps\nMaximum frame rate                       : 30.036 fps\nColor space                              : YUV\nChroma subsampling                       : 4:2:0\nBit depth                                : 8 bits\nScan type                                : Progressive\nCompression mode                         : Lossy\nBits/(Pixel*Frame)                       : 0.146\nStream size                              : 1 019 MiB (93%)\nWriting library                          : ZJMedia MPEG Encoder\n\nAudio\nID                                       : 2\nFormat                                   : AAC\nFormat/Info                              : Advanced Audio Codec\nFormat profile                           : LC\nCodec ID                                 : 40\nDuration                                 : 1h 24mn\nBit rate mode                            : Variable\nBit rate                                 : 128 Kbps\nChannel(s)                               : 2 channels\nChannel positions                        : Front: L R\nSampling rate                            : 48.0 KHz\nCompression mode                         : Lossy\nStream size                              : 77.2 MiB (7%)","torrent":{"xt":"urn:btih:c325c3e715c0bb351c5b1543b5f4efe06625e15e","amp;dn":"The+Boy+Next+Door+2015+HDCAM+FIRST+ENG+x264+Pimp4003","amp;tr":["udp%3A%2F%2Ftracker.openbittorrent.com%3A80","udp%3A%2F%2Fopen.demonii.com%3A1337","udp%3A%2F%2Ftracker.coppersurfer.tk%3A6969","udp%3A%2F%2Fexodus.desync.com%3A6969"],"infoHash":"c325c3e715c0bb351c5b1543b5f4efe06625e15e","infoHashBuffer":{"type":"Buffer","data":[195,37,195,231,21,192,187,53,28,91,21,67,181,244,239,224,102,37,225,94]},"announce":[],"urlList":[]}}